M48
;GenerationSoftware,Autodesk,EAGLE,9.6.1*%
;CreationDate,2020-11-02T22:41:59Z*%
FMAT,2
ICI,OFF
METRIC,TZ,000.000
T8C0.350
T7C0.787
T6C0.800
T5C0.991
T4C1.016
T3C1.500
T2C2.000
T1C3.175
%
G90
M71
T1
X3175Y43815
X40005Y43815
X85090Y33655
X48260Y33655
X48260Y53975
X85090Y53975
X85090Y43815
X48260Y43815
X40005Y53975
X3175Y53975
X3175Y33655
X40005Y33655
T2
X10795Y12700
X32385Y12700
X55880Y12700
X77470Y12700
T3
X6350Y2885
X6350Y11085
X51435Y2885
X51435Y11085
T4
X39370Y13462
X39370Y20320
X41910Y20320
X41910Y13462
X84455Y64135
X84455Y66675
X84455Y69215
X48895Y69215
X48895Y66675
X48895Y64135
X3810Y61595
X48895Y61595
X46355Y13462
X48895Y13462
X46355Y20320
X48895Y20320
X86995Y13462
X84455Y13462
X84455Y20320
X86995Y20320
X84455Y61595
X39370Y61595
X39370Y64135
X39370Y66675
X39370Y69215
X3810Y69215
X3810Y66675
X3810Y64135
X1270Y13462
X3810Y13462
X1270Y20320
X3810Y20320
T5
X39370Y9576
X84455Y9576
X84455Y5080
X77953Y5080
X77953Y9576
X32868Y9576
X32868Y5080
X39370Y5080
T6
X51435Y8985
X51435Y6985
X6350Y4985
X6350Y6985
X6350Y8985
X51435Y4985
T7
X80645Y48260
X80645Y45720
X80645Y40640
X80645Y38100
X80645Y35560
X80645Y33020
X80645Y30480
X52705Y27940
X80645Y27940
X80645Y43180
X33020Y57150
X10160Y54610
X10160Y52070
X10160Y49530
X10160Y46990
X10160Y44450
X10160Y41910
X10160Y39370
X10160Y36830
X10160Y34290
X10160Y31750
X10160Y29210
X10160Y26670
X10160Y57150
X10160Y59690
X33020Y59690
X33020Y54610
X33020Y52070
X33020Y49530
X33020Y46990
X33020Y44450
X33020Y41910
X33020Y39370
X33020Y36830
X33020Y34290
X33020Y31750
X33020Y29210
X33020Y26670
X10160Y24130
X33020Y24130
X7620Y58420
X7620Y55880
X7620Y53340
X7620Y50800
X7620Y48260
X7620Y45720
X7620Y43180
X7620Y40640
X7620Y38100
X7620Y35560
X7620Y33020
X7620Y30480
X7620Y60960
X7620Y63500
X35560Y63500
X78105Y39370
X35560Y58420
X35560Y55880
X35560Y53340
X35560Y50800
X35560Y48260
X35560Y45720
X35560Y43180
X35560Y40640
X35560Y38100
X35560Y35560
X35560Y33020
X35560Y30480
X7620Y27940
X35560Y27940
X35560Y60960
X55245Y54610
X55245Y52070
X55245Y49530
X55245Y46990
X55245Y44450
X55245Y41910
X55245Y39370
X55245Y36830
X55245Y34290
X55245Y31750
X55245Y29210
X55245Y26670
X55245Y57150
X55245Y59690
X78105Y59690
X78105Y57150
X78105Y54610
X78105Y52070
X78105Y49530
X78105Y46990
X78105Y44450
X78105Y41910
X78105Y36830
X78105Y34290
X78105Y31750
X78105Y29210
X78105Y26670
X55245Y24130
X78105Y24130
X52705Y58420
X52705Y55880
X52705Y53340
X52705Y50800
X52705Y48260
X52705Y45720
X52705Y43180
X52705Y40640
X52705Y38100
X52705Y35560
X52705Y33020
X52705Y30480
X52705Y60960
X52705Y63500
X80645Y63500
X80645Y60960
X80645Y58420
X80645Y55880
X80645Y53340
X80645Y50800
T8
X7302Y15240
X8573Y15240
X7937Y15240
X9208Y15240
X7302Y16510
X7937Y16510
X8573Y16510
X9208Y16510
X33973Y15240
X34608Y15240
X45085Y70803
X43180Y33338
X45085Y7302
X45085Y7937
X45085Y8573
X45085Y9208
X43180Y7302
X43180Y7937
X43180Y8573
X43180Y71438
X45085Y69533
X45085Y70168
X45085Y71438
X43180Y70803
X43180Y70168
X52387Y15240
X43180Y69533
X45085Y33338
X45085Y33973
X45085Y34608
X45085Y35243
X43180Y35243
X43180Y34608
X43180Y9208
X80963Y16510
X80328Y16510
X79693Y16510
X79058Y16510
X80963Y15240
X80328Y15240
X79693Y15240
X79058Y15240
X54292Y16510
X53657Y16510
X53022Y16510
X52387Y16510
X54292Y15240
X53022Y15240
X53657Y15240
X35878Y16510
X35243Y16510
X34608Y16510
X33973Y16510
X35878Y15240
X35243Y15240
X43180Y33973
M30