M48
;GenerationSoftware,Autodesk,EAGLE,9.6.1*%
;CreationDate,2020-11-23T01:39:38Z*%
FMAT,2
ICI,OFF
METRIC,TZ,000.000
T8C0.350
T7C0.800
T6C0.991
T5C1.016
T4C1.500
T3C2.000
T2C2.337
T1C3.175
%
G90
M71
T1
X3175Y43815
X3175Y53975
X3175Y33655
X40005Y53975
X40005Y43815
X40005Y33655
X84455Y53975
X47625Y53975
X47625Y43815
X47625Y33655
X84455Y43815
X84455Y33655
T2
X40005Y48895
X40005Y25400
X47625Y25400
X47625Y48895
X84455Y48895
X84455Y25400
X3175Y25400
X3175Y48895
T3
X13335Y11430
X29845Y11430
X13335Y5715
X29845Y5715
X74295Y11430
X57785Y11430
X57785Y5715
X74295Y5715
T4
X7937Y11402
X52387Y3202
X52387Y11402
X7937Y3202
T5
X41275Y13462
X4445Y19050
X1905Y19050
X83185Y13462
X4445Y13462
X1905Y13462
X38735Y19050
X83185Y19050
X85725Y19050
X41275Y19050
X3175Y64135
X3175Y66675
X3175Y69215
X47625Y69215
X47625Y66675
X47625Y64135
X3175Y61595
X46355Y13462
X48895Y13462
X46355Y19050
X48895Y19050
X85725Y13462
X38735Y13462
X47625Y61595
T6
X54610Y36830
X54610Y34290
X54610Y31750
X54610Y29210
X54610Y26670
X54610Y57150
X54610Y59690
X77470Y59690
X77470Y57150
X77470Y54610
X77470Y52070
X77470Y49530
X77470Y46990
X77470Y44450
X77470Y41910
X77470Y39370
X77470Y36830
X77470Y34290
X77470Y31750
X77470Y29210
X77470Y26670
X54610Y24130
X77470Y24130
X52070Y58420
X52070Y55880
X52070Y53340
X52070Y50800
X52070Y48260
X52070Y45720
X52070Y43180
X52070Y40640
X52070Y38100
X52070Y35560
X52070Y33020
X52070Y30480
X52070Y60960
X52070Y63500
X80010Y63500
X80010Y60960
X80010Y58420
X80010Y55880
X80010Y53340
X80010Y50800
X80010Y48260
X80010Y45720
X80010Y43180
X80010Y40640
X80010Y38100
X80010Y35560
X80010Y33020
X80010Y30480
X52070Y27940
X80010Y27940
X33503Y9576
X33503Y5080
X40005Y5080
X40005Y9576
X10160Y54610
X10160Y52070
X10160Y49530
X10160Y46990
X10160Y44450
X10160Y41910
X10160Y39370
X10160Y36830
X10160Y34290
X10160Y31750
X10160Y29210
X10160Y26670
X10160Y57150
X10160Y59690
X33020Y59690
X33020Y57150
X33020Y54610
X33020Y52070
X33020Y49530
X33020Y46990
X33020Y44450
X33020Y41910
X33020Y39370
X33020Y36830
X33020Y34290
X33020Y31750
X33020Y29210
X33020Y26670
X10160Y24130
X33020Y24130
X7620Y58420
X7620Y55880
X7620Y53340
X7620Y50800
X7620Y48260
X7620Y45720
X7620Y43180
X7620Y40640
X7620Y38100
X7620Y35560
X7620Y33020
X7620Y30480
X7620Y60960
X7620Y63500
X35560Y63500
X35560Y60960
X35560Y58420
X35560Y55880
X35560Y53340
X35560Y50800
X35560Y48260
X35560Y45720
X35560Y43180
X35560Y40640
X35560Y38100
X35560Y35560
X35560Y33020
X35560Y30480
X7620Y27940
X35560Y27940
X77953Y9576
X77953Y5080
X84455Y5080
X84455Y9576
X54610Y54610
X54610Y52070
X54610Y49530
X54610Y46990
X54610Y44450
X54610Y41910
X54610Y39370
T7
X52387Y9303
X52387Y5303
X52387Y7302
X7937Y9303
X7937Y7302
X7937Y5303
T8
X8573Y15240
X9208Y15240
X33973Y16510
X34608Y16510
X35243Y16510
X35878Y16510
X33973Y15240
X34608Y15240
X35243Y15240
X35878Y15240
X51752Y16510
X52387Y16510
X53022Y16510
X53657Y16510
X51752Y15240
X52387Y15240
X53022Y15240
X53657Y15240
X78423Y16510
X79058Y16510
X79693Y16510
X80328Y16510
X78423Y15240
X79058Y15240
X79693Y15240
X80328Y15240
X44450Y70485
X44450Y69850
X44450Y69215
X44450Y68580
X44450Y67945
X43180Y67945
X43180Y68580
X43180Y69215
X43180Y69850
X43180Y70485
X44450Y24130
X44450Y23495
X44450Y22860
X44450Y22225
X44450Y21590
X43180Y21590
X43180Y22225
X43180Y22860
X43180Y23495
X7302Y16510
X44450Y12382
X43180Y11747
X43180Y11112
X43180Y10478
X43180Y9843
X7937Y16510
X8573Y16510
X43180Y24130
X44450Y9843
X44450Y10478
X44450Y11112
X44450Y11747
X9208Y16510
X7302Y15240
X7937Y15240
X43180Y12382
M30